/* XPM */
static char *result[] = {
/* columns rows colors chars-per-pixel */
"32 32 79 1 ",
"  c gray4",
". c #0B0A0A",
"X c #0C0A0A",
"o c #0D0B0A",
"O c #0E0B0B",
"+ c #100B0B",
"@ c #110C0B",
"# c #120C0B",
"$ c #130C0B",
"% c #160D0C",
"& c #1B0E0C",
"* c #1F0F0D",
"= c #23100D",
"- c #24100E",
"; c #25100E",
": c #26110E",
"> c #28110E",
", c #29110E",
"< c #2A120E",
"1 c #2D120F",
"2 c #31130F",
"3 c #351410",
"4 c #361510",
"5 c #371510",
"6 c #401711",
"7 c #441812",
"8 c #461812",
"9 c #501B14",
"0 c #531C14",
"q c #561C14",
"w c #571C15",
"e c #581D15",
"r c #5A1D15",
"t c #631F16",
"y c #642016",
"u c #672017",
"i c #722318",
"p c #752419",
"a c #782519",
"s c #7B251A",
"d c #7D261A",
"f c #7F261A",
"g c #80261A",
"h c #81261A",
"j c #86281B",
"k c #87281B",
"l c #88281B",
"z c #89281B",
"x c #8C291C",
"c c #8D291C",
"v c #912A1D",
"b c #932B1D",
"n c #942B1D",
"m c #952B1D",
"M c #972C1D",
"N c #982C1D",
"B c #992C1E",
"V c #9A2D1E",
"C c #9B2D1E",
"Z c #9E2E1E",
"A c #9F2E1E",
"S c #A02E1F",
"D c #A12E1F",
"F c #A42F1F",
"G c #A62F1F",
"H c #A83020",
"J c #A93020",
"K c #AA3020",
"L c #AD3120",
"P c #AF3221",
"I c #B03221",
"U c #B13221",
"Y c #B23221",
"T c #B33321",
"R c #B43321",
"E c #B53321",
"W c #B63322",
"Q c #B83422",
"! c #B93422",
/* pixels */
"!!!!!!!!!!!!!!!!!!!!!!!!!!!!!!!!",
"!!!!!!!!!!!!!!!!!!!!!!!!!!!!!!!!",
"!!!!!!!!!!!!!!!!!!!!!!!!!!!!!!!!",
"!!!!!!!!RJHT!!!!!!!!!!!!!!!!!!!!",
"!!!!!!!Rxq0lT!!!!!!!!!!!!!!!!!!!",
"!!!!!!!G9$#8F!!!!!!!!!!!!!!!!!!!",
"!!!!!!!C2..<M!!!!!!!!!!!!!!!!!!!",
"!!!!!!!B<..-m!!!!!!!!!!!!!!!!!!!",
"!!!!!!!N,..=m!!!!!!!!!!!!!!!!!!!",
"!!!!!!!B< .=m!!!!!!!!!!!!!!!!!!!",
"!!!!!!!B,. =m!!!!!!!!!!!!!!!!!!!",
"!!!!!!!N, .=n!!!!!!!!!!!!!!!!!!!",
"!!!!!!!N<..=n!!!!!!!!!!!!!!!!!!!",
"!!!!!!!M<. =m!!!!!!!!!!!!!!!!!!!",
"!!!!!!!N<..=n!!!!!!!!!!!!!!!!!!!",
"!!!!!!!B<..=n!!!!!!!!!!!!!!!!!!!",
"!!!!!!!B<..=b!!!!!!!!!!!!!!!!!!!",
"!!!!!!!M<..-m!!!!!!!!!!!!!!!!!!!",
"!!!!!!!M>. ;n!!!!!!!!!!!!!!!!!!!",
"!!!!!!!m- .:M!!!!!!!!!!!!!!!!!!!",
"!!!!!!!v*..1V!!!!!!!!!!!!!!!!!!!",
"!!!!!!!c&. 3A!!!!!!!!!!!!!!!!!!!",
"!!!!!!!k%..6F!!!!!!!!!!!!!!!!!!!",
"!!!!!!Qd#..5pghffffglZT!!!!!!!!!",
"!!!!!!Wio .O+++@+++@%4zR!!!!!!!!",
"!!!!!!Ws#.  .     .  #uL!!!!!!!!",
"!!!!!!QD7#X....X.X..O-dU!!!!!!!!",
"!!!!!!!WSatrewqweeweyjKQ!!!!!!!!",
"!!!!!!!!QWYPPPPPPPPPIEQ!!!!!!!!!",
"!!!!!!!!!!!!!!!!!!!!!!!!!!!!!!!!",
"!!!!!!!!!!!!!!!!!!!!!!!!!!!!!!!!",
"!!!!!!!!!!!!!!!!!!!!!!!!!!!!!!!!"
};
