/* XPM */
static char *result[] = {
/* columns rows colors chars-per-pixel */
"32 32 123 2 ",
"   c gray4",
".  c #0B0A0A",
"X  c #0C0A0A",
"o  c #0D0B0A",
"O  c #0E0B0B",
"+  c #0F0B0B",
"@  c #100B0B",
"#  c #110C0B",
"$  c #120C0B",
"%  c #140C0B",
"&  c #150D0C",
"*  c #160D0C",
"=  c #170D0C",
"-  c #180D0C",
";  c #1A0E0C",
":  c #1B0E0C",
">  c #1C0E0C",
",  c #1D0E0D",
"<  c #1D0F0D",
"1  c #1E0F0D",
"2  c #1F0F0D",
"3  c #200F0D",
"4  c #21100D",
"5  c #23100D",
"6  c #24100E",
"7  c #25100E",
"8  c #25110E",
"9  c #26110E",
"0  c #28110E",
"q  c #29110E",
"w  c #2A120E",
"e  c #2B120F",
"r  c #2D120F",
"t  c #2E130F",
"y  c #31130F",
"u  c #32140F",
"i  c #321410",
"p  c #331410",
"a  c #371510",
"s  c #381510",
"d  c #3C1611",
"f  c #3D1611",
"g  c #3E1711",
"h  c #3F1711",
"j  c #401711",
"k  c #411712",
"l  c #431812",
"z  c #441812",
"x  c #451812",
"c  c #461812",
"v  c #481913",
"b  c #491913",
"n  c #4B1A13",
"m  c #4C1A13",
"M  c #4D1A13",
"N  c #4F1A13",
"B  c #501B14",
"V  c #531B14",
"C  c #581D15",
"Z  c #5B1D15",
"A  c #631F16",
"S  c #652016",
"D  c #652017",
"F  c #672017",
"G  c #6A2117",
"H  c #6B2117",
"J  c #6C2217",
"K  c #702318",
"L  c #712318",
"P  c #722318",
"I  c #732318",
"U  c #742419",
"Y  c #752419",
"T  c #762419",
"R  c #772419",
"E  c #782519",
"W  c #792519",
"Q  c #83271B",
"!  c #87281B",
"~  c #88281B",
"^  c #89281B",
"/  c #8A291C",
"(  c #8B291C",
")  c #8C291C",
"_  c #8E2A1C",
"`  c #8F2A1C",
"'  c #902A1C",
"]  c #912A1C",
"[  c #912A1D",
"{  c #922B1D",
"}  c #932B1D",
"|  c #952B1D",
" . c #962C1D",
".. c #972C1D",
"X. c #982C1D",
"o. c #992C1E",
"O. c #9B2D1E",
"+. c #9C2D1E",
"@. c #9E2D1E",
"#. c #9E2E1E",
"$. c #A02E1F",
"%. c #A12E1F",
"&. c #A22E1F",
"*. c #A22F1F",
"=. c #A42F1F",
"-. c #A52F1F",
";. c #A62F1F",
":. c #A73020",
">. c #A83020",
",. c #A93020",
"<. c #AA3020",
"1. c #AB3120",
"2. c #AD3120",
"3. c #AF3221",
"4. c #B03221",
"5. c #B13221",
"6. c #B33321",
"7. c #B43321",
"8. c #B53321",
"9. c #B63322",
"0. c #B73422",
"q. c #B83422",
"w. c #B93422",
/* pixels */
"w.w.w.w.w.w.w.w.w.w.w.w.w.w.w.w.w.w.w.w.w.w.w.w.w.w.w.w.w.w.w.w.",
"w.w.w.w.w.w.w.w.w.w.w.w.7.1.#.| ] ` [ X.;.7.w.w.w.w.w.w.w.w.w.w.",
"w.w.w.w.w.w.w.w.w.9.1.} K M p 6 3 1 3 q z T ;.q.w.w.w.w.w.w.w.w.",
"w.w.w.w.w.w.q.3...R n 5 $ X .     .   . . & C :.w.w.w.w.w.w.w.w.",
"w.w.w.w.w.q.*.A 0 # . .     .   . . .       = R 8.w.w.w.w.w.w.w.",
"w.w.w.w.q.=.m @       . . O - 8 r t e ; .   . l =.w.w.w.w.w.w.w.",
"w.w.w.w.7.W % .     X ; f G ~ | O.+.o.I :     4 { w.w.w.w.w.w.w.",
"w.w.w.w.4.J O   O r S / -.7.w.w.w.w.w.&.a .   * ! w.w.w.w.w.w.w.",
"w.w.w.w.8._ s , v [ 6.w.w.w.w.w.w.w.w.@.i .   * / w.w.w.w.w.w.w.",
"w.w.w.w.w.6.%...>.q.w.w.w.w.w.w.w.w.3.J *     7 | w.w.w.w.w.w.w.",
"w.w.w.w.w.w.w.w.w.w.w.w.w.w.w.w.0.,.I 3 .   o M <.w.w.w.w.w.w.w.",
"w.w.w.w.w.w.w.w.w.w.w.w.w.w.0.1./ V : .   . 0 ) 0.w.w.w.w.w.w.w.",
"w.w.w.w.w.w.w.w.w.w.w.w.q.=.P j > o .   . 2 Y 5.w.w.w.w.w.w.w.w.",
"w.w.w.w.w.w.w.w.w.w.w.w.,.M + .       . 2 K 2.w.w.w.w.w.w.w.w.w.",
"w.w.w.w.w.w.w.w.w.w.w.w.X.5           o u ( 8.w.w.w.w.w.w.w.w.w.",
"w.w.w.w.w.w.w.w.w.w.w.w.;.h X .   .     . y { 0.w.w.w.w.w.w.w.w.",
"w.w.w.w.w.w.w.w.w.w.w.w.9.} B w , & o     o N 1.w.w.w.w.w.w.w.w.",
"w.w.w.w.w.w.w.w.w.w.w.w.w.9.2.#.{ Q b #     9 ..w.w.w.w.w.w.w.w.",
"w.w.w.w.w.w.w.w.w.w.w.w.w.w.w.w.w.9.Q 3 .   : ' w.w.w.w.w.w.w.w.",
"w.w.w.w.w.w.w.w.w.w.w.w.w.w.w.q.2.^ j +   . 0 o.w.w.w.w.w.w.w.w.",
"w.w.w.w.w.w.w.w.w.w.w.w.w.9.,.^ C 5 o     @ Z 2.w.w.w.w.w.w.w.w.",
"w.w.w.w.w.w.w.w.w.w.7.=.` L x < o .   . + k O.q.w.w.w.w.w.w.w.w.",
"w.w.w.w.w.w.w.7.*./ F g 1 + . .     . = M  .9.w.w.w.w.w.w.w.w.w.",
"w.w.w.w.w.q.>.U d ; o   .       . & s Y ;.q.w.w.w.w.w.w.w.w.w.w.",
"w.w.w.w.w.2.A * . .     . . o 1 c E $.7.w.w.w.w.w.w.w.w.w.w.w.w.",
"w.w.w.w.w.*.g X . . . $ 6 x H _ >.9.w.w.w.w.w.w.w.w.w.w.w.w.w.w.",
"w.w.w.w.w.2.D , = w N E | ,.7.w.w.w.w.w.w.w.w.w.w.w.w.w.w.w.w.w.",
"w.w.w.w.w.q.<.' ~ ..1.9.w.w.w.w.w.w.w.w.w.w.w.w.w.w.w.w.w.w.w.w.",
"w.w.w.w.w.w.w.q.q.w.w.w.w.w.w.w.w.w.w.w.w.w.w.w.w.w.w.w.w.w.w.w.",
"w.w.w.w.w.w.w.w.w.w.w.w.w.w.w.w.w.w.w.w.w.w.w.w.w.w.w.w.w.w.w.w.",
"w.w.w.w.w.w.w.w.w.w.w.w.w.w.w.w.w.w.w.w.w.w.w.w.w.w.w.w.w.w.w.w.",
"w.w.w.w.w.w.w.w.w.w.w.w.w.w.w.w.w.w.w.w.w.w.w.w.w.w.w.w.w.w.w.w."
};
