/* XPM */
static char *result[] = {
/* columns rows colors chars-per-pixel */
"32 32 118 2 ",
"   c gray4",
".  c #0B0A0A",
"X  c #0C0A0A",
"o  c #0D0B0A",
"O  c #0E0B0B",
"+  c #0F0B0B",
"@  c #100B0B",
"#  c #110C0B",
"$  c #120C0B",
"%  c #130C0B",
"&  c #140C0B",
"*  c #150D0C",
"=  c #160D0C",
"-  c #170D0C",
";  c #180D0C",
":  c #190E0C",
">  c #1D0E0D",
",  c #1E0F0D",
"<  c #1F0F0D",
"1  c #210F0D",
"2  c #21100D",
"3  c #22100D",
"4  c #23100D",
"5  c #24100E",
"6  c #27110E",
"7  c #28110E",
"8  c #2A120E",
"9  c #2B120F",
"0  c #2C120F",
"q  c #2E130F",
"w  c #30130F",
"e  c #321410",
"r  c #391510",
"t  c #3A1611",
"y  c #3B1611",
"u  c #3D1611",
"i  c #3F1711",
"p  c #401711",
"a  c #431812",
"s  c #461812",
"d  c #471912",
"f  c #481913",
"g  c #4B1913",
"h  c #4F1A13",
"j  c #4F1B14",
"k  c #531B14",
"l  c #561C14",
"z  c #571C15",
"x  c #5B1D15",
"c  c #5C1E15",
"v  c #5D1E15",
"b  c #5E1E15",
"n  c #5E1E16",
"m  c #601F16",
"M  c #621F16",
"N  c #631F16",
"B  c #642016",
"V  c #652016",
"C  c #662017",
"Z  c #672017",
"A  c #682117",
"S  c #692117",
"D  c #6A2117",
"F  c #6B2117",
"G  c #6D2218",
"H  c #702218",
"J  c #702318",
"K  c #712318",
"L  c #722318",
"P  c #742318",
"I  c #742419",
"U  c #752419",
"Y  c #762419",
"T  c #782419",
"R  c #782519",
"E  c #7A2519",
"W  c #7B2519",
"Q  c #7B251A",
"!  c #7C251A",
"~  c #7D261A",
"^  c #7E261A",
"/  c #7F261A",
"(  c #80261A",
")  c #83271B",
"_  c #85271B",
"`  c #87281B",
"'  c #88281B",
"]  c #8E2A1C",
"[  c #902A1C",
"{  c #912A1C",
"}  c #932B1D",
"|  c #952B1D",
" . c #992C1E",
".. c #9A2D1E",
"X. c #9C2D1E",
"o. c #9E2D1E",
"O. c #A02E1F",
"+. c #A32F1F",
"@. c #A42F1F",
"#. c #A62F1F",
"$. c #A6301F",
"%. c #A73020",
"&. c #A83020",
"*. c #AA3020",
"=. c #AB3120",
"-. c #AC3120",
";. c #AD3120",
":. c #AE3120",
">. c #AF3221",
",. c #B13221",
"<. c #B23221",
"1. c #B33321",
"2. c #B43321",
"3. c #B53321",
"4. c #B63322",
"5. c #B73422",
"6. c #B83422",
"7. c #B93422",
/* pixels */
"7.7.7.7.7.7.7.7.7.7.7.7.7.7.7.7.7.7.7.7.7.7.7.7.7.7.7.7.7.7.7.7.",
"7.7.7.7.7.7.6.2.<.3.6.7.7.7.7.7.7.7.7.7.7.7.7.7.7.7.7.7.7.7.7.7.",
"7.7.7.7.7.5.@.W M D / } #.1.6.7.7.7.7.7.7.7.7.7.7.7.7.7.7.7.7.7.",
"7.7.7.7.7.;.N * X X $ 3 p N /  .;.5.7.7.7.7.7.7.7.7.7.7.7.7.7.7.",
"7.7.7.7.7.#.i         . . o & 7 j / +.3.7.7.7.7.7.7.7.7.7.7.7.7.",
"7.7.7.7.7.>.k .       . . .   . X = t Q -.6.7.7.7.7.7.7.7.7.7.7.",
"7.7.7.7.7.7.U o   . 7 2 $ o .       . : b &.7.7.7.7.7.7.7.7.7.7.",
"7.7.7.7.7.7.! O   o x [ / m r : X       * V >.7.7.7.7.7.7.7.7.7.",
"7.7.7.7.7.7.~ O   X B 2.6.,.@.' l < .     , ` 5.7.7.7.7.7.7.7.7.",
"7.7.7.7.7.7.Q +   o B 2.7.7.7.7.:.) w . . . g *.7.7.7.7.7.7.7.7.",
"7.7.7.7.7.7.~ O   X B 2.7.7.7.7.7.4.~ :     1 } 7.7.7.7.7.7.7.7.",
"7.7.7.7.7.7.! +   X V 2.7.7.7.7.7.7.$.a .   @ E 6.7.7.7.7.7.7.7.",
"7.7.7.7.7.7.~ O   X N 2.7.7.7.7.7.7.4.D o   X S 2.7.7.7.7.7.7.7.",
"7.7.7.7.7.7.~ O . X B 2.7.7.7.7.7.7.7.~ +   X v ,.7.7.7.7.7.7.7.",
"7.7.7.7.7.7.! o   . N 2.7.7.7.7.7.7.7.^ +   . c ,.7.7.7.7.7.7.7.",
"7.7.7.7.7.7.! +   X N 2.7.7.7.7.7.7.7.! +   . n ,.7.7.7.7.7.7.7.",
"7.7.7.7.7.7.~ +   X B 2.7.7.7.7.7.7.7.R O   . C 2.7.7.7.7.7.7.7.",
"7.7.7.7.7.7.~ O   X N 2.7.7.7.7.7.7.4.F o   o K 4.7.7.7.7.7.7.7.",
"7.7.7.7.7.7.! o   X V 2.7.7.7.7.7.7.=.f .   @ ~ 7.7.7.7.7.7.7.7.",
"7.7.7.7.7.7.! +   . N 2.7.7.7.7.7.7.{ 4 . . > { 7.7.7.7.7.7.7.7.",
"7.7.7.7.7.7.W +   o B 2.7.7.7.7.7.*.z +   . u @.7.7.7.7.7.7.7.7.",
"7.7.7.7.7.7.W O   X A 2.7.7.7.6.%.M ;     % H 2.7.7.7.7.7.7.7.7.",
"7.7.7.7.7.7.R O . o G 4.7.7.,.{ h &     o y O.7.7.7.7.7.7.7.7.7.",
"7.7.7.7.7.6.U o   o P 6.,...B 6 o     . 8 _ 3.7.7.7.7.7.7.7.7.7.",
"7.7.7.7.7.5.L o   o I | N q # .   . o q _ ,.7.7.7.7.7.7.7.7.7.7.",
"7.7.7.7.7.5.J o   o s 9 O .     . - d ] 2.7.7.7.7.7.7.7.7.7.7.7.",
"7.7.7.7.7.5.L o   . o .     . O e Y @.5.7.7.7.7.7.7.7.7.7.7.7.7.",
"7.7.7.7.7.5.L X           + q Z X.2.7.7.7.7.7.7.7.7.7.7.7.7.7.7.",
"7.7.7.7.7.6.( @     . + 0 Z ..,.6.7.7.7.7.7.7.7.7.7.7.7.7.7.7.7.",
"7.7.7.7.7.7.O.i @ + 5 v | ,.7.7.7.7.7.7.7.7.7.7.7.7.7.7.7.7.7.7.",
"7.7.7.7.7.7.5.o.T U { ;.6.7.7.7.7.7.7.7.7.7.7.7.7.7.7.7.7.7.7.7.",
"7.7.7.7.7.7.7.6.3.2.6.7.7.7.7.7.7.7.7.7.7.7.7.7.7.7.7.7.7.7.7.7."
};
