/* XPM */
static char *result[] = {
/* columns rows colors chars-per-pixel */
"32 32 118 2 ",
"   c gray4",
".  c #0B0A0A",
"X  c #0C0A0A",
"o  c #0D0B0A",
"O  c #0F0B0B",
"+  c #100B0B",
"@  c #110C0B",
"#  c #120C0B",
"$  c #140C0B",
"%  c #160D0C",
"&  c #180D0C",
"*  c #1A0E0C",
"=  c #1B0E0C",
"-  c #1C0E0C",
";  c #1D0E0D",
":  c #1E0F0D",
">  c #1F0F0D",
",  c #210F0D",
"<  c #23100D",
"1  c #24100E",
"2  c #25100E",
"3  c #25110E",
"4  c #26110E",
"5  c #28110E",
"6  c #2A120E",
"7  c #2D120F",
"8  c #341410",
"9  c #351410",
"0  c #361510",
"q  c #371510",
"w  c #381510",
"e  c #3B1611",
"r  c #3D1611",
"t  c #3E1711",
"y  c #411712",
"u  c #421712",
"i  c #431812",
"p  c #441812",
"a  c #451812",
"s  c #461812",
"d  c #471912",
"f  c #481913",
"g  c #4A1913",
"h  c #4C1A13",
"j  c #4D1A13",
"k  c #4E1A13",
"l  c #4F1B14",
"z  c #511B14",
"x  c #531B14",
"c  c #541C14",
"v  c #571C15",
"b  c #5A1D15",
"n  c #5F1E16",
"m  c #601F16",
"M  c #621F16",
"N  c #652016",
"B  c #662017",
"V  c #692117",
"C  c #6B2117",
"Z  c #6F2218",
"A  c #702218",
"S  c #702318",
"D  c #712318",
"F  c #722318",
"G  c #732318",
"H  c #742318",
"J  c #752419",
"K  c #762419",
"L  c #772419",
"P  c #782419",
"I  c #782519",
"U  c #7B2519",
"Y  c #7C251A",
"T  c #7D261A",
"R  c #7E261A",
"E  c #80261A",
"W  c #81261A",
"Q  c #81271A",
"!  c #83271B",
"~  c #84271B",
"^  c #85271B",
"/  c #86281B",
"(  c #87281B",
")  c #88281B",
"_  c #89281B",
"`  c #8C291C",
"'  c #8D291C",
"]  c #8E2A1C",
"[  c #952B1D",
"{  c #962C1D",
"}  c #972C1D",
"|  c #982C1D",
" . c #9B2D1E",
".. c #9D2D1E",
"X. c #9E2E1E",
"o. c #A02E1F",
"O. c #A12E1F",
"+. c #A32F1F",
"@. c #A42F1F",
"#. c #A62F1F",
"$. c #A6301F",
"%. c #A73020",
"&. c #A83020",
"*. c #A93020",
"=. c #AA3020",
"-. c #AB3120",
";. c #AC3120",
":. c #AD3120",
">. c #AE3120",
",. c #AF3221",
"<. c #B13221",
"1. c #B23221",
"2. c #B33321",
"3. c #B43321",
"4. c #B53321",
"5. c #B63322",
"6. c #B83422",
"7. c #B93422",
/* pixels */
"7.7.7.7.7.7.7.7.7.7.7.7.7.7.7.7.7.7.7.7.7.7.7.7.7.7.7.7.7.7.7.7.",
"7.7.7.7.7.7.7.7.7.7.7.7.7.7.7.7.7.7.7.7.7.7.7.7.7.7.7.7.7.7.7.7.",
"7.7.7.7.7.7.7.7.7.7.7.7.7.7.7.7.7.7.7.7.7.7.7.7.7.7.7.7.7.7.7.7.",
"7.7.7.7.7.7.7.7.7.7.7.7.7.7.7.7.7.7.7.7.7.7.7.7.7.7.7.7.7.7.7.7.",
"7.7.7.7.7.7.6.&.| *.6.7.7.7.7.7.7.7.7.7.7.7.7.7.7.7.7.7.7.7.7.7.",
"7.7.7.7.7.7.@.f - h %.7.7.7.7.7.7.7.7.7.7.7.7.:...O.1.7.7.7.7.7.",
"7.7.7.7.7.6.! O . + _ 7.7.7.7.7.7.7.7.7.7.7.:.N 4 0 ! 2.7.7.7.7.",
"7.7.7.7.7.6.G X   o U 7.7.7.7.7.7.7.7.7.7.7.[ 3 . o z &.7.7.7.7.",
"7.7.7.7.7.6.D .   o I 7.7.7.7.7.7.7.7.7.7.7.) %   . u #.7.7.7.7.",
"7.7.7.7.7.6.S .   o I 7.7.7.7.7.7.7.7.7.7.7.^ $ . . p #.7.7.7.7.",
"7.7.7.7.7.6.S .   . L 7.7.7.7.7.7.7.7.7.7.7.E # . . g &.7.7.7.7.",
"7.7.7.7.7.6.S X   X L 7.7.7.7.7.7.7.7.7.7.4.C o   . b ,.7.7.7.7.",
"7.7.7.7.7.6.D .   . K 7.7.7.7.7.7.7.7.7.7.*.a .   O J 5.7.7.7.7.",
"7.7.7.7.7.6.F X   o F 6.7.7.7.7.7.7.7.7.7.} 4     - ' 7.7.7.7.7.",
"7.7.7.7.7.7.K o   X B 4.7.7.7.7.7.7.7.7.6.Y #     w O.7.7.7.7.7.",
"7.7.7.7.7.7.R O   . v ,.7.7.7.7.7.7.7.7.,.c X . o n <.7.7.7.7.7.",
"7.7.7.7.7.7.Q +   . k -.7.7.7.7.7.7.7.7. .7 .   & / 7.7.7.7.7.7.",
"7.7.7.7.7.7.~ #     y $.7.7.7.7.7.7.7.7.( %   . 8 o.7.7.7.7.7.7.",
"7.7.7.7.7.7.` =     5 } 7.7.7.7.7.7.7.6.S O   X v ,.7.7.7.7.7.7.",
"7.7.7.7.7.7.o.9     @ L 5.7.7.7.7.7.7.-.j .   O J 6.7.7.7.7.7.7.",
"7.7.7.7.7.7.2.M o . . s &.7.7.7.7.7.6.] 1   . * ` 7.7.7.7.7.7.7.",
"7.7.7.7.7.7.7.] :   . ; _ 6.7.7.7.7.,.m O   . e +.7.7.7.7.7.7.7.",
"7.7.7.7.7.7.7.*.d .   o x =.7.7.7.7.o.9 .   # Z 3.7.7.7.7.7.7.7.",
"7.7.7.7.7.7.7.5.Y % . . ; K 2.7.7.7.) *   . 6 { 7.7.7.7.7.7.7.7.",
"7.7.7.7.7.7.7.7.O.r X . . 2 R ,.6.+.l o   X j -.7.7.7.7.7.7.7.7.",
"7.7.7.7.7.7.7.7.3.W <     . , b H i #     $ P 5.7.7.7.7.7.7.7.7.",
"7.7.7.7.7.7.7.7.7.>.A *   . . o O .     o t o.7.7.7.7.7.7.7.7.7.",
"7.7.7.7.7.7.7.7.7.7.-.V > . .         o 9 ] 4.7.7.7.7.7.7.7.7.7.",
"7.7.7.7.7.7.7.7.7.7.7.;.T q @ X . o * l } 5.7.7.7.7.7.7.7.7.7.7.",
"7.7.7.7.7.7.7.7.7.7.7.7.3.X.K v z m ) -.6.7.7.7.7.7.7.7.7.7.7.7.",
"7.7.7.7.7.7.7.7.7.7.7.7.7.7.5.:.-.<.6.7.7.7.7.7.7.7.7.7.7.7.7.7.",
"7.7.7.7.7.7.7.7.7.7.7.7.7.7.7.7.7.7.7.7.7.7.7.7.7.7.7.7.7.7.7.7."
};
