/* XPM */
static char *result[] = {
/* columns rows colors chars-per-pixel */
"32 32 134 2 ",
"   c gray4",
".  c #0B0A0A",
"X  c #0C0A0A",
"o  c #0D0B0A",
"O  c #0E0B0B",
"+  c #0F0B0B",
"@  c #100B0B",
"#  c #110C0B",
"$  c #120C0B",
"%  c #130C0B",
"&  c #140C0B",
"*  c #150D0C",
"=  c #160D0C",
"-  c #170D0C",
";  c #180D0C",
":  c #1A0E0C",
">  c #1B0E0C",
",  c #1D0E0D",
"<  c #1D0F0D",
"1  c #1E0F0D",
"2  c #1F0F0D",
"3  c #200F0D",
"4  c #210F0D",
"5  c #21100D",
"6  c #23100D",
"7  c #24100E",
"8  c #25110E",
"9  c #27110E",
"0  c #28110E",
"q  c #29110E",
"w  c #2A120E",
"e  c #2B120F",
"r  c #2C120F",
"t  c #2D120F",
"y  c #2E130F",
"u  c #2F130F",
"i  c #30130F",
"p  c #31130F",
"a  c #32140F",
"s  c #321410",
"d  c #331410",
"f  c #371510",
"g  c #391510",
"h  c #3A1611",
"j  c #3D1611",
"k  c #3E1711",
"l  c #401711",
"z  c #431812",
"x  c #441812",
"c  c #451812",
"v  c #481913",
"b  c #491913",
"n  c #4D1A13",
"m  c #4F1A13",
"M  c #4F1B14",
"N  c #511B14",
"B  c #521B14",
"V  c #531B14",
"C  c #551C14",
"Z  c #561C14",
"A  c #571C15",
"S  c #581D15",
"D  c #5A1D15",
"F  c #5C1E15",
"G  c #5D1E15",
"H  c #5E1E15",
"J  c #601F16",
"K  c #631F16",
"L  c #642016",
"P  c #662017",
"I  c #672017",
"U  c #682117",
"Y  c #692117",
"T  c #6E2218",
"R  c #6F2218",
"E  c #722318",
"W  c #742318",
"Q  c #772419",
"!  c #782419",
"~  c #792519",
"^  c #7A2519",
"/  c #7B2519",
"(  c #7C251A",
")  c #7F261A",
"_  c #80261A",
"`  c #83271B",
"'  c #86281B",
"]  c #87281B",
"[  c #88281B",
"{  c #89281B",
"}  c #8D291C",
"|  c #8E2A1C",
" . c #8F2A1C",
".. c #902A1C",
"X. c #912A1C",
"o. c #912A1D",
"O. c #922B1D",
"+. c #932B1D",
"@. c #942B1D",
"#. c #952B1D",
"$. c #962C1D",
"%. c #972C1D",
"&. c #982C1D",
"*. c #992C1E",
"=. c #9B2D1E",
"-. c #9C2D1E",
";. c #9D2D1E",
":. c #9E2D1E",
">. c #9E2E1E",
",. c #A02E1F",
"<. c #A12E1F",
"1. c #A22E1F",
"2. c #A22F1F",
"3. c #A32F1F",
"4. c #A52F1F",
"5. c #A62F1F",
"6. c #A6301F",
"7. c #A73020",
"8. c #A93020",
"9. c #AA3020",
"0. c #AB3120",
"q. c #AC3120",
"w. c #AD3120",
"e. c #AE3120",
"r. c #AF3221",
"t. c #B13221",
"y. c #B23221",
"u. c #B33321",
"i. c #B43321",
"p. c #B53321",
"a. c #B63322",
"s. c #B73422",
"d. c #B83422",
"f. c #B93422",
/* pixels */
"f.f.f.f.f.f.f.f.f.f.f.f.f.f.f.f.f.f.f.f.f.f.f.f.f.f.f.f.f.f.f.f.",
"f.f.f.f.f.f.f.f.f.f.f.f.f.f.f.f.f.f.f.f.f.f.f.f.f.f.f.f.f.f.f.f.",
"f.f.f.f.f.f.f.f.f.f.f.f.f.f.f.f.f.f.f.f.f.f.f.f.f.f.f.f.f.f.f.f.",
"f.f.f.f.f.f.f.f.f.f.f.f.f.f.f.f.f.f.f.f.f.f.f.f.f.f.f.f.f.f.f.f.",
"f.f.f.f.f.f.f.f.f.f.f.f.a.w.,.#.|  .:.r.d.f.f.f.f.f.f.f.f.f.f.f.",
"f.f.f.f.f.f.f.f.f.f.i.;.! C g 8 > , s Y 4.f.f.f.f.f.f.f.f.f.f.f.",
"f.f.f.f.f.f.f.f.f.r.~ a # . . .       = J 0.f.f.f.f.f.f.f.f.f.f.",
"f.f.f.f.f.f.f.f.y.Q 3 . .   . . . .     , ) p.f.f.f.f.f.f.f.f.f.",
"f.f.f.f.f.f.f.d.+.w .   . O ; 7 i 1 . . X z 6.f.f.f.f.f.f.f.f.f.",
"f.f.f.f.f.f.f.r.H O     1 F ' #.-.W <   . , | f.f.f.f.f.f.f.f.f.",
"f.f.f.f.f.f.f.<.j .   % P e.f.f.f.8.b .   O E a.f.f.f.f.f.f.f.f.",
"f.f.f.f.f.f.f.1.z O o h ;.f.f.f.f.d.E O . . B w.f.f.f.f.f.f.f.f.",
"f.f.f.f.f.f.f.t.( l z ` y.f.f.f.f.f.[ -   . h 2.f.f.f.f.f.f.f.f.",
"f.f.f.f.f.f.f.f.t.3.4.u.f.f.f.f.f.f.o.3   . r =.f.f.f.f.f.f.f.f.",
"f.f.f.f.f.f.f.f.f.f.f.f.f.f.f.f.f.f.%.9     6 @.f.f.f.f.f.f.f.f.",
"f.f.f.f.f.f.f.f.f.f.f.f.f.f.f.f.f.f.*.e . . 4 O.f.f.f.f.f.f.f.f.",
"f.f.f.f.f.f.f.f.f.f.f.f.f.f.f.f.f.f.*.w   . 5 O.f.f.f.f.f.f.f.f.",
"f.f.f.f.f.f.f.f.f.f.f.f.f.f.f.f.f.f.O.3     0 &.f.f.f.f.f.f.f.f.",
"f.f.f.f.f.f.f.f.f.f.f.f.f.f.f.f.f.i.R #   . k 3.f.f.f.f.f.f.f.f.",
"f.f.f.f.f.f.f.f.f.f.f.f.f.f.f.f.d. .y .   o L t.f.f.f.f.f.f.f.f.",
"f.f.f.f.a.8.&.} { ' [ ..>.w.s.f.2.c o     7 X.d.f.f.f.f.f.f.f.f.",
"f.f.f.p.| n q > = = = < p Z ) o.Z #     % I t.f.f.f.f.f.f.f.f.f.",
"f.f.d.$.i o .     .       o * 1 + . . O M 4.f.f.f.f.f.f.f.f.f.f.",
"f.f.w.C .     . . . . .     .       X g &.d.f.f.f.f.f.f.f.f.f.f.",
"f.f.:.y     o 7 d f i 2 +         . < _ p.f.f.f.f.f.f.f.f.f.f.f.",
"f.f.=.y .   o 5 0 6 : @ .           & J 8.f.p.e.w.p.f.f.f.f.f.f.",
"f.f.q.V X   . . . . .     . X o . . . * N ^ T F U @.p.f.f.f.f.f.",
"f.f.d.@.a O . .   . . . o : l G r .     o $ + o & A 9.f.f.f.f.f.",
"f.f.f.i...N t 3 2 7 u x K ] 4.t.] e .         . o v 5.f.f.f.f.f.",
"f.f.f.f.a.0.=.O.o.#.-.7.y.d.f.f.p.| k % X . . @ t / t.f.f.f.f.f.",
"f.f.f.f.f.f.f.f.f.f.f.f.f.f.f.f.f.s.1.~ D m S W %.t.f.f.f.f.f.f.",
"f.f.f.f.f.f.f.f.f.f.f.f.f.f.f.f.f.f.f.a.e.8.e.a.f.f.f.f.f.f.f.f."
};
