/* XPM */
static char *result[] = {
/* columns rows colors chars-per-pixel */
"32 32 10 1 ",
"  c #8F563B",
". c #AD5227",
"X c #B15F38",
"o c #BB652F",
"O c #C4682D",
"+ c #CD6B2A",
"@ c #D66E28",
"# c #D48047",
"$ c #A6FAFF",
"% c #FFFCC9",
/* pixels */
"%%%%%%%%%%%%%%%%%%%%%%$%%%%%%%%%",
"%%%%%%%%%%%%%%%%%%%%%%$$%%%%%%%%",
"%%%%%%%%%%######%%%%%%%$%%%%%%%%",
"%%%%%%%%%%#############%$%%%%%%%",
"%%%%%%%%%################$$%%%%%",
"$$%%%%%%%#################XX.$$$",
"%$$$$$$$##################XX. %%",
"%%%%%%%$####   ###@#######X.. %%",
"%%%%%%%#######  OO########X.  %%",
"%%%%%%%#######+O##      ##XX %%%",
"%%%%%%%###################XX %%%",
"%%%%%%####################XX %%%",
"%%%%%%###################XX. %%%",
"%%%%%%####     ##########XX.%%%%",
"%%%%%%########   #   ####XX %%%$",
"$$%%%%##########  ###   #X. %%$$",
"%%$%%%###################X.%%$$%",
"%%%%%%###################X.$$$%%",
"%%%%%%##  ##############XX.$%%%%",
"%%%%%####    ####O+@####X..%%%%%",
"%%%%%#######  OOOo #####X. %%%%%",
"%%%%%#######+OO###   ###X %%%%%%",
"%%%%%###################X %%%%%%",
"%%%%%###################X %%%%%%",
"%%%%###################X. %%%%%%",
"%%%%##################XX  %%%%%%",
"%%%........###########X. %%%%%%%",
"%%%       ....##X####XX. %%%%%%%",
"%%%%%%%%%    ...XXXXXX.  %%%%%%%",
"%%%%%%%%%%%%%   ...XX.. %%%%%%%%",
"%%%%%%%%%%%%%%%%     .  %%%%%%%%",
"%%%%%%%%%%%%%%%%%%%%%$$%%%%%%%%%"
};
