/* XPM */
static char *result[] = {
/* columns rows colors chars-per-pixel */
"32 32 7 1 ",
"  c black",
". c #574E5E",
"X c #8A34CB",
"o c #BAB1C1",
"O c #CAA7E5",
"+ c white",
"@ c None",
/* pixels */
"@@@@@@@@@@@@@@@@@@@@@@@@@@@@@@@@",
"@@  ..@@@@@@@@@@@@@@@@@@@@@@@@@@",
"@@ oo+o.@@@@@@@@@@@@@@@@@@@@@@@@",
"@@.o++++.@@@@@@@@@@@@@@@@@..  @@",
"@@.++OX+o@@@@@@@@@@@@@@@.o+oo @@",
"@@@o+XO++.@@@@@@@@@@@@@.++++o.@@",
"@@@.++++o.@@@@@@@@@@@@@o+XO++.@@",
"@@@@.o+oo @@@@@@@@@@@@.++OX+o@@@",
"@@@@@@..  @@@@@@@@@@@@.o++++.@@@",
"@@@@@@@@@@@@@@@@@@@@@@ oo+o.@@@@",
"@XOX@@@@@@@@@......@@@  ..@@XOX@",
"@@OOOX@@@@ ..oooooo.. @@@@XOOO@@",
"@@@XOOX@ .ooo+.  .+ooo. @XOOX@@@",
"@@OOXOO ooo++.OOOO.++ooo OOXOO@@",
"@@@@OX oo+++.OOXXOO.+++oo XO@@@@",
"@@@@@ oo++++ OXXXXO ++++oo @@@@@",
"@@@@@ ++++++ OXXXXO ++++++ @@@@@",
"@@@@OX o++++.OOXXOO.++++o XO@@@@",
"@@OOXOO o++++.OOOO.++++o OOXOO@@",
"@@@XOOX@ .o+++.  .+++o. @XOOX@@@",
"@@OOOX@@@@ ..o++++o.. @@@@XOOO@@",
"@XOX@@@@@@@@@......@@@@@@@@@XOX@",
"@@@@@@@..  @@@@@@@@@@@@@@@@@@@@@",
"@@@@@.o+oo @@@@@@@@@@@  ..@@@@@@",
"@@@@.++++o.@@@@@@@@@@@ oo+o.@@@@",
"@@@@o+XO++.@@@@@@@@@@@.o++++.@@@",
"@@@.++OX+o@@@@@@@@@@@@.++OX+o@@@",
"@@@.o++++.@@@@@@@@@@@@@o+XO++.@@",
"@@@ oo+o.@@@@@@@@@@@@@@.++++o.@@",
"@@@  ..@@@@@@@@@@@@@@@@@.o+oo @@",
"@@@@@@@@@@@@@@@@@@@@@@@@@@..  @@",
"@@@@@@@@@@@@@@@@@@@@@@@@@@@@@@@@"
};
