/* XPM */
static char *result[] = {
/* columns rows colors chars-per-pixel */
"32 32 7 1 ",
"  c black",
". c #574E5E",
"X c #8A34CB",
"o c #BAB1C1",
"O c #CAA7E5",
"+ c white",
"@ c None",
/* pixels */
"@@@@@@@@@@@@@@@@@@@@@@@@@@@@@@@@",
"@@@@@@@@@@@@@@@@@@@@@@@@@@..  @@",
"@@@  ..@@@@@@@@@@@@@@@@@.o+oo @@",
"@@@ oo+o.@@@@@@@@@@@@@@.++++o.@@",
"@@@.o++++.@@@@@@@@@@@@@o+XO++.@@",
"@@@.++OX+o@@@@@@@@@@@@.++OX+o@@@",
"@@@@o+XO++.@@@@@@@@@@@.o++++.@@@",
"@@@@.++++o.@@@@@@@@@@@ oo+o.@@@@",
"@@@@@.o+oo @@@@@@@@@@@  ..@@@@@@",
"@@@@@@@..  @@@@@@@@@@@@@@@@@@@@@",
"@XOX@@@@@@@@@......@@@@@@@@@XOX@",
"@@OOOX@@@@ .......... @@@@XOOO@@",
"@@@XOOX@ .............. @XOOX@@@",
"@@OOXOO ................ OOXOO@@",
"@@@@OX .................. XO@@@@",
"@@@@@ .................... @@@@@",
"@@@@@ .................... @@@@@",
"@@@@OX .................. XO@@@@",
"@@OOXOO ................ OOXOO@@",
"@@@XOOX@ .............. @XOOX@@@",
"@@OOOX@@@@ .......... @@@@XOOO@@",
"@XOX@@@@@@@@@......@@@@@@@@@XOX@",
"@@@@@@@..  @@@@@@@@@@  ..@@@@@@@",
"@@@@@.o+oo @@@@@@@@@@ oo+o.@@@@@",
"@@@@.++++o.@@@@@@@@@@.o++++.@@@@",
"@@@@o+XO++.@@@@@@@@@@.++OX+o@@@@",
"@@@.++OX+o@@@@@@@@@@@@o+XO++.@@@",
"@@@.o++++.@@@@@@@@@@@@.++++o.@@@",
"@@@ oo+o.@@@@@@@@@@@@@@.o+oo @@@",
"@@@  ..@@@@@@@@@@@@@@@@@@..  @@@",
"@@@@@@@@@@@@@@@@@@@@@@@@@@@@@@@@",
"@@@@@@@@@@@@@@@@@@@@@@@@@@@@@@@@"
};
