/* XPM */
static char *result[] = {
/* columns rows colors chars-per-pixel */
"32 32 7 1 ",
"  c black",
". c #574E5E",
"X c #8A34CB",
"o c #BAB1C1",
"O c #CAA7E5",
"+ c white",
"@ c None",
/* pixels */
"@@@@@@@@@@@@@@@@@@@@@@@@@@@@@@@@",
"@@@@@@@@@@@@@@@@@@@@@@@@@@@@@@@@",
"@@  ..@@@@@@@@@@@@@@@@@@@@..  @@",
"@@ oo+o.@@@@@@@@@@@@@@@@.o+oo @@",
"@@.o++++.@@@@@@@@@@@@@@.++++o.@@",
"@@.++OX+o@@@@@@@@@@@@@@o+XO++.@@",
"@@@o+XO++.@@@@@@@@@@@@.++OX+o@@@",
"@@@.++++o.@@@@@@@@@@@@.o++++.@@@",
"@@@@.o+oo @@@@@@@@@@@@ oo+o.@@@@",
"@@@@@@..  @@@@@@@@@@@@  ..@@@@@@",
"@XOX@@@@@@@@@......@@@@@@@@@XOX@",
"@@OOOX@@@@ .......... @@@@XOOO@@",
"@@@XOOX@ ....+.  .+.... @XOOX@@@",
"@@OOXOO ..o++.OOOO.++o.. OOXOO@@",
"@@@@OX ..+++.OOXXOO.+++.. XO@@@@",
"@@@@@ oo++++ OXXXXO ++++oo @@@@@",
"@@@@@ ++++++ OXXXXO ++++++ @@@@@",
"@@@@OX o++++.OOXXOO.++++o XO@@@@",
"@@OOXOO o++++.OOOO.++++o OOXOO@@",
"@@@XOOX@ .o+++.  .+++o. @XOOX@@@",
"@@OOOX@@@@ ..o++++o.. @@@@XOOO@@",
"@XOX@@@@@@@@@......@@@@@@@@@XOX@",
"@@@@@@..  @@@@@@@@@@@@  ..@@@@@@",
"@@@@.o+oo @@@@@@@@@@@@ oo+o.@@@@",
"@@@.++++o.@@@@@@@@@@@@.o++++.@@@",
"@@@o+XO++.@@@@@@@@@@@@.++OX+o@@@",
"@@.++OX+o@@@@@@@@@@@@@@o+XO++.@@",
"@@.o++++.@@@@@@@@@@@@@@.++++o.@@",
"@@ oo+o.@@@@@@@@@@@@@@@@.o+oo @@",
"@@  ..@@@@@@@@@@@@@@@@@@@@..  @@",
"@@@@@@@@@@@@@@@@@@@@@@@@@@@@@@@@",
"@@@@@@@@@@@@@@@@@@@@@@@@@@@@@@@@"
};
