/* XPM */
static char *_34918c682b2422ada3080b0af62190bUDcp4JCJW9LWEuoe[] = {
/* columns rows colors chars-per-pixel */
"32 32 2 1 ",
"  c #A6FAFF",
". c #FFFCC9",
/* pixels */
"...................... .........",
"......................  ........",
"....................... ........",
"........................ .......",
"........................   .....",
"  ........................      ",
".       ........................",
".......  .......................",
"........  ......................",
".........   ....................",
"................................",
"................................",
"................................",
"................................",
"............................... ",
"  ..........    ..............  ",
".. ........ .................  .",
"...........................   ..",
"........................    ....",
"....................     .......",
"................................",
"................................",
"................................",
"................................",
"................................",
"................................",
"................................",
"........         ...............",
"................   .............",
"..................  ............",
"...................  ...........",
".....................  ........."
};
