/* XPM */
static char *d92423cd24314613f9321b3c2343c4eeCaZKvg8Y5CGk9oep[] = {
/* columns rows colors chars-per-pixel */
"32 32 4 1 ",
"  c None",
". c #3B551C",
"X c #65913E",
"o c #89C440",
/* pixels */
"                                ",
"                                ",
"                                ",
"                                ",
"                                ",
"             ......... ....     ",
"          ....oooooooo..oo....  ",
"        ...ooooooooooo.oooooo.  ",
"      ...ooooooooooooooooooXo.. ",
"     ..oooooooooooooooooooX.oo. ",
"    ..ooooooooooooooooooooXXoo..",
"    .oooooooooooooooooooooooooo.",
"   ..oooooooooooooooooXoooooooo.",
"   .oooooooooooooooooXXooooo....",
"  ..oooooooooooooooXXoooo....   ",
"  .ooooooXoooXoooXXX..ooo.      ",
"  .ooooooXoo.XXXXX...ooo..      ",
" ..oooooXXoo........ooo....     ",
" .ooooooXooo.      .oooooo...   ",
" .oooooXX.oo.      .oooooooo.   ",
"..oooXXXX.oo..     .....oooo.   ",
".oooXX....ooo.         ..oo..   ",
".oooX.....ooo.          ....    ",
".ooo..ooo..oo.                  ",
"..oo.ooXoo....                  ",
" .ooooXXXo.                     ",
" .ooooXXo..                     ",
" ..oooXoo.                      ",
"  ..oooo..                      ",
"   ......                       ",
"                                ",
"                                "
};
