/* XPM */
static char *result[] = {
/* columns rows colors chars-per-pixel */
"32 32 83 1 ",
"  c gray4",
". c #0B0A0A",
"X c #0C0A0A",
"o c #0D0B0A",
"O c #0F0B0B",
"+ c #100B0B",
"@ c #120C0B",
"# c #130C0B",
"$ c #140C0B",
"% c #160D0C",
"& c #170D0C",
"* c #180D0C",
"= c #1A0E0C",
"- c #1D0F0D",
"; c #1F0F0D",
": c #200F0D",
"> c #21100D",
", c #24100E",
"< c #2E130F",
"1 c #30130F",
"2 c #371510",
"3 c #3B1611",
"4 c #3F1711",
"5 c #401711",
"6 c #411712",
"7 c #461812",
"8 c #481912",
"9 c #4D1A13",
"0 c #511B14",
"q c #531C14",
"w c #541C14",
"e c #571C15",
"r c #591D15",
"t c #5C1E15",
"y c #5E1E15",
"u c #5E1E16",
"i c #652016",
"p c #652017",
"a c #662017",
"s c #672017",
"d c #692117",
"f c #702218",
"g c #702318",
"h c #742419",
"j c #752419",
"k c #762419",
"l c #772419",
"z c #782519",
"x c #7A2519",
"c c #7B2519",
"v c #7C251A",
"b c #7D261A",
"n c #7F261A",
"m c #80261A",
"M c #81271A",
"N c #83271B",
"B c #84271B",
"V c #86281B",
"C c #88281B",
"Z c #89281B",
"A c #8A291C",
"S c #932B1D",
"D c #942B1D",
"F c #962C1D",
"G c #972C1D",
"H c #A12E1F",
"J c #A22F1F",
"K c #A42F1F",
"L c #A93020",
"P c #AA3020",
"I c #AB3120",
"U c #AD3120",
"Y c #AE3120",
"T c #AF3221",
"R c #B03221",
"E c #B13221",
"W c #B23221",
"Q c #B43321",
"! c #B53321",
"~ c #B63322",
"^ c #B73422",
"/ c #B83422",
"( c #B93422",
/* pixels */
"((((((((((((((((((((((((((((((((",
"((((((((((((((((((((((((((((((((",
"((((((((((((((((((((((((((((((((",
"((((((((((((((/WIE/(((((((((((((",
"(((((((((((((/LgwxR(((((((((((((",
"(((((((((((((Pt@.;S(((((((((((((",
"(((((((((((^Ls%  Xh/((((((((((((",
"((((((((((QD0&   .g/((((((((((((",
"((((((((/Uc1O .  Xh/((((((((((((",
"(((((((~Hu=.  o. ok/((((((((((((",
"((((((EA6@.  $<X Xj/((((((((((((",
"(((((QZ1o ..>ddo Xk/((((((((((((",
"(((((Ys#..+2VElo oj/((((((((((((",
"(((((Rk:+-qG~(zo og^((((((((((((",
"(((((^JzsML/((co oaQ((((((((((((",
"((((((^ET!((((n+ XeT((((((((((((",
"((((((((((((((B$.X8L((((((((((((",
"((((((((((((((Z* .4K((((((((((((",
"((((((((((((((C*..3J((((((((((((",
"((((((((((((((V%..5K((((((((((((",
"((((((((((((((M@ .9I((((((((((((",
"((((((((((((((nO XrT((((((((((((",
"((((((((((((((vO.oyE((((((((((((",
"((((((((((((((bO XuE((((((((((((",
"((((((((((((((bO XuE((((((((((((",
"((((((((((((((N@.opE((((((((((((",
"((((((((((((((F,o=mQ((((((((((((",
"((((((((((((((Yf7iK/((((((((((((",
"((((((((((((((/TKU^(((((((((((((",
"((((((((((((((((((((((((((((((((",
"((((((((((((((((((((((((((((((((",
"(((((((((((((((((((((((((((((((("
};
