/* XPM */
static char *result[] = {
/* columns rows colors chars-per-pixel */
"32 32 105 2 ",
"   c gray4",
".  c #0B0A0A",
"X  c #0C0A0A",
"o  c #0D0B0A",
"O  c #0E0B0B",
"+  c #0F0B0B",
"@  c #110C0B",
"#  c #120C0B",
"$  c #130C0B",
"%  c #140C0B",
"&  c #160D0C",
"*  c #170D0C",
"=  c #180D0C",
"-  c #180E0C",
";  c #1A0E0C",
":  c #1B0E0C",
">  c #1C0E0C",
",  c #1D0E0D",
"<  c #1F0F0D",
"1  c #200F0D",
"2  c #21100D",
"3  c #22100D",
"4  c #23100D",
"5  c #25100E",
"6  c #29110E",
"7  c #2A120E",
"8  c #2E130F",
"9  c #30130F",
"0  c #32140F",
"q  c #331410",
"w  c #351410",
"e  c #361510",
"r  c #371510",
"t  c #391510",
"y  c #3B1611",
"u  c #3C1611",
"i  c #3D1611",
"p  c #401711",
"a  c #461812",
"s  c #481913",
"d  c #4C1A13",
"f  c #4E1A13",
"g  c #501B14",
"h  c #531B14",
"j  c #541C14",
"k  c #581D15",
"l  c #5B1D15",
"z  c #611F16",
"x  c #621F16",
"c  c #631F16",
"v  c #642016",
"b  c #672017",
"n  c #6D2218",
"m  c #6E2218",
"M  c #712318",
"N  c #722318",
"B  c #742318",
"V  c #762419",
"C  c #772419",
"Z  c #7C251A",
"A  c #7D261A",
"S  c #82271A",
"D  c #84271B",
"F  c #85271B",
"G  c #86281B",
"H  c #87281B",
"J  c #88281B",
"K  c #89281B",
"L  c #8A291C",
"P  c #8B291C",
"I  c #8C291C",
"U  c #8D291C",
"Y  c #8E2A1C",
"T  c #8F2A1C",
"R  c #952B1D",
"E  c #972C1D",
"W  c #982C1D",
"Q  c #992C1E",
"!  c #9B2D1E",
"~  c #9D2D1E",
"^  c #9E2D1E",
"/  c #9E2E1E",
"(  c #A02E1F",
")  c #A12E1F",
"_  c #A22E1F",
"`  c #A32F1F",
"'  c #A42F1F",
"]  c #A52F1F",
"[  c #A62F1F",
"{  c #A73020",
"}  c #A93020",
"|  c #AB3120",
" . c #AC3120",
".. c #AD3120",
"X. c #AF3221",
"o. c #B03221",
"O. c #B13221",
"+. c #B23221",
"@. c #B33321",
"#. c #B43321",
"$. c #B53321",
"%. c #B63322",
"&. c #B73422",
"*. c #B83422",
"=. c #B93422",
/* pixels */
"=.=.=.=.=.=.=.=.=.=.=.=.=.=.=.=.=.=.=.=.=.=.=.=.=.=.=.=.=.=.=.=.",
"=.=.=.=.=.=.=.=.=.=.=.=.=.=.=.=.=.=.=.=.=.=.=.=.=.=.=.=.=.=.=.=.",
"=.=.=.=.=.=.=.%.O.@.*.=.=.=.=.=.=.=.=.=.=.=.=.=.=.=.=.=.=.=.=.=.",
"=.=.=.=.=.=.$.E V S [ *.=.=.=.=.=.#...O.&.=.=.=.=.=.=.=.=.=.=.=.",
"=.=.=.=.=.=.' s & 4 C O.=.=.=.=.@.J v V ] *.=.=.=.=.=.=.=.=.=.=.",
"=.=.=.=.=.=.I , . X h } =.=.=.=.! w @ < A +.=.=.=.=.=.=.=.=.=.=.",
"=.=.=.=.=.%.N +   . j ..=.=.=.%.B #   o v o.=.=.=.=.=.=.=.=.=.=.",
"=.=.=.=.=.} f .   O m $.=.=.=.| d X   O m #.=.=.=.=.=.=.=.=.=.=.",
"=.=.=.=.=.E 6 . . > U =.=.=.=.! 7 .   > K *.=.=.=.=.=.=.=.=.=.=.",
"=.=.=.=.%.V # .   y _ =.=.=.=.L = . . q / =.=.=.=.=.=.=.=.=.=.=.",
"=.=.=.=.| d X   O c O.=.=.=.=.A @   X g  .=.=.=.=.=.=.=.=.=.=.=.",
"=.=.=.=.Q 7 . . ; V ( ( ( ( ~ k o   X k T K Y { *.=.=.=.=.=.=.=.",
"=.=.=.=.I = . . & 9 r r r e 0 =     X 3 2 * * g } =.=.=.=.=.=.=.",
"=.=.=.=.P &           . . . .               . > W =.=.=.=.=.=.=.",
"=.=.=.=.^ 8 .         .                 .   o p ] =.=.=.=.=.=.=.",
"=.=.=.=.+.A e : * * = = = * % .     O - 5 t z Q %.=.=.=.=.=.=.=.",
"=.=.=.=.=.+.( Y L L L P L I c +   . i D R ) X.*.=.=.=.=.=.=.=.=.",
"=.=.=.=.=.=.=.=.=.=.=.=.=.=.Z O   . x #.=.=.=.=.=.=.=.=.=.=.=.=.",
"=.=.=.=.=.=.=.=.=.=.=.=.=.=.V X   o M &.=.=.=.=.=.=.=.=.=.=.=.=.",
"=.=.=.=.=.=.=.=.=.=.=.=.=.&.n X   o V *.=.=.=.=.=.=.=.=.=.=.=.=.",
"=.=.=.=.=.=.=.=.=.=.=.=.=.O.l X   + A *.=.=.=.=.=.=.=.=.=.=.=.=.",
"=.=.=.=.=.=.=.=.=.=.=.=.=. .f .   # S =.=.=.=.=.=.=.=.=.=.=.=.=.",
"=.=.=.=.=.=.=.=.=.=.=.=.=.} a .   $ F =.=.=.=.=.=.=.=.=.=.=.=.=.",
"=.=.=.=.=.=.=.=.=.=.=.=.=.` y .   & J =.=.=.=.=.=.=.=.=.=.=.=.=.",
"=.=.=.=.=.=.=.=.=.=.=.=.=.) u X . 6 R =.=.=.=.=.=.=.=.=.=.=.=.=.",
"=.=.=.=.=.=.=.=.=.=.=.=.=. .b < 1 x  .=.=.=.=.=.=.=.=.=.=.=.=.=.",
"=.=.=.=.=.=.=.=.=.=.=.=.=.%.' G H ' *.=.=.=.=.=.=.=.=.=.=.=.=.=.",
"=.=.=.=.=.=.=.=.=.=.=.=.=.=.*.#.$.*.=.=.=.=.=.=.=.=.=.=.=.=.=.=.",
"=.=.=.=.=.=.=.=.=.=.=.=.=.=.=.=.=.=.=.=.=.=.=.=.=.=.=.=.=.=.=.=.",
"=.=.=.=.=.=.=.=.=.=.=.=.=.=.=.=.=.=.=.=.=.=.=.=.=.=.=.=.=.=.=.=.",
"=.=.=.=.=.=.=.=.=.=.=.=.=.=.=.=.=.=.=.=.=.=.=.=.=.=.=.=.=.=.=.=.",
"=.=.=.=.=.=.=.=.=.=.=.=.=.=.=.=.=.=.=.=.=.=.=.=.=.=.=.=.=.=.=.=."
};
