/* XPM */
static char *result[] = {
/* columns rows colors chars-per-pixel */
"32 32 114 2 ",
"   c gray4",
".  c #0B0A0A",
"X  c #0C0A0A",
"o  c #0D0B0A",
"O  c #0E0B0B",
"+  c #0F0B0B",
"@  c #100B0B",
"#  c #110C0B",
"$  c #120C0B",
"%  c #130C0B",
"&  c #140C0B",
"*  c #160D0C",
"=  c #170D0C",
"-  c #1A0E0C",
";  c #1B0E0C",
":  c #1D0F0D",
">  c #1F0F0D",
",  c #200F0D",
"<  c #210F0D",
"1  c #21100D",
"2  c #23100D",
"3  c #24100E",
"4  c #25110E",
"5  c #26110E",
"6  c #28110E",
"7  c #2A120E",
"8  c #2C120F",
"9  c #2D120F",
"0  c #2E130F",
"q  c #2F130F",
"w  c #30130F",
"e  c #31130F",
"r  c #331410",
"t  c #351410",
"y  c #361510",
"u  c #371510",
"i  c #391510",
"p  c #3D1611",
"a  c #411712",
"s  c #441812",
"d  c #461812",
"f  c #481913",
"g  c #491913",
"h  c #4B1A13",
"j  c #4D1A13",
"k  c #4F1A13",
"l  c #4F1B14",
"z  c #511B14",
"x  c #531C14",
"c  c #571C15",
"v  c #581D15",
"b  c #5A1D15",
"n  c #5B1D15",
"m  c #5C1E15",
"M  c #5F1E16",
"N  c #631F16",
"B  c #642016",
"V  c #662017",
"C  c #672017",
"Z  c #692117",
"A  c #6B2117",
"S  c #6C2217",
"D  c #6E2218",
"F  c #6F2218",
"G  c #702318",
"H  c #732318",
"J  c #762419",
"K  c #782419",
"L  c #7B251A",
"P  c #7D261A",
"I  c #7F261A",
"U  c #80261A",
"Y  c #83271B",
"T  c #84271B",
"R  c #86281B",
"E  c #88281B",
"W  c #89281B",
"Q  c #8C291C",
"!  c #8E2A1C",
"~  c #8F2A1C",
"^  c #902A1C",
"/  c #912A1D",
"(  c #932B1D",
")  c #952B1D",
"_  c #962C1D",
"`  c #992C1E",
"'  c #9A2D1E",
"]  c #9B2D1E",
"[  c #9D2D1E",
"{  c #9F2E1E",
"}  c #A02E1F",
"|  c #A12E1F",
" . c #A22F1F",
".. c #A32F1F",
"X. c #A42F1F",
"o. c #A52F1F",
"O. c #A62F1F",
"+. c #A73020",
"@. c #A83020",
"#. c #A93020",
"$. c #AB3120",
"%. c #AD3120",
"&. c #AE3120",
"*. c #AF3221",
"=. c #B03221",
"-. c #B13221",
";. c #B23221",
":. c #B33321",
">. c #B43321",
",. c #B53321",
"<. c #B63322",
"1. c #B73422",
"2. c #B83422",
"3. c #B93422",
/* pixels */
"3.3.3.3.3.3.3.3.3.3.3.3.3.3.3.3.3.3.3.3.3.3.3.3.3.3.3.3.3.3.3.3.",
"3.3.3.3.3.3.3.3.3.3.3.3.3.3.3.3.3.3.3.3.3.3.3.3.3.3.3.3.3.3.3.3.",
"3.3.3.3.3.3.3.3.3.3.3.3.3.3.3.3.3.3.3.3.3.3.3.3.3.3.3.3.3.3.3.3.",
"3.3.3.3.3.3.3.3.3.3.3.3.3.3.3.3.3.3.3.3.3.3.3.3.3.3.3.3.3.3.3.3.",
"3.3.3.3.3.3.3.3.3.3.3.1...R Y ) $.<.3.3.3.3.3.3.3.3.3.3.3.3.3.3.",
"3.3.3.3.3.3.3.3.3.3.2.' p + + 1 l E %.3.3.3.3.3.3.3.3.3.3.3.3.3.",
"3.3.3.3.3.3.3.3.3.3.&.b X       X < M | 1.3.3.3.3.3.3.3.3.3.3.3.",
"3.3.3.3.3.3.3.3.3.3.` 6 .         . # g [ 2.3.3.3.3.3.3.3.3.3.3.",
"3.3.3.3.3.3.3.3.3.2.U $   . - = . .   # v &.3.3.3.3.3.3.3.3.3.3.",
"3.3.3.3.3.3.3.3.3.-.m X   X v K y o   . , ( 3.3.3.3.3.3.3.3.3.3.",
"3.3.3.3.3.3.3.3.3.} t   . & T <.) y . . O Z >.3.3.3.3.3.3.3.3.3.",
"3.3.3.3.3.3.3.3.3.W -   . 8 ] 3.1.G @   X s +.3.3.3.3.3.3.3.3.3.",
"3.3.3.3.3.3.3.3.,.S +   . l %.3.3.Y *   . y } 3.3.3.3.3.3.3.3.3.",
"3.3.3.3.3.3.3.3.#.f .   + H <.>.X.n + . . a o.3.3.3.3.3.3.3.3.3.",
"3.3.3.3.3.3.3.3.] 7 .   & m J C s * . . + V ;.3.3.3.3.3.3.3.3.3.",
"3.3.3.3.3.3.3.3.R =     . o o o . .   . q _ 2.3.3.3.3.3.3.3.3.3.",
"3.3.3.3.3.3.3.,.D o           .   . X 3 I :.3.3.3.3.3.3.3.3.3.3.",
"3.3.3.3.3.3.3.%.z X       . X o $ > d E =.3.3.3.3.3.3.3.3.3.3.3.",
"3.3.3.3.3.3.3.} u .   .   . < c L / @.<.3.3.3.3.3.3.3.3.3.3.3.3.",
"3.3.3.3.3.3.3.) 2     o   . . 5 A o.2.3.3.3.3.3.3.3.3.3.3.3.3.3.",
"3.3.3.3.3.3.3.E =   . < % .   . & d ~ -.3.3.3.3.3.3.3.3.3.3.3.3.",
"3.3.3.3.3.3.2.J + . . j b ; . .   X 4 D +.3.3.3.3.3.3.3.3.3.3.3.",
"3.3.3.3.3.3.;.M o   O F #.J 8 o     . = v  .2.3.3.3.3.3.3.3.3.3.",
"3.3.3.3.3.3.+.s . . & Y 3.>.) k * .     & m %.3.3.3.3.3.3.3.3.3.",
"3.3.3.3.3.3.[ e . . : ^ 3.3.2.#.J 9 X . . 7 ] 3.3.3.3.3.3.3.3.3.",
"3.3.3.3.3.3.] 0 . X w ' 3.3.3.3.>.! i @ o r { 3.3.3.3.3.3.3.3.3.",
"3.3.3.3.3.3.O.h & * c #.3.3.3.3.3.1.' N x P =.3.3.3.3.3.3.3.3.3.",
"3.3.3.3.3.3.>.Q M B ) <.3.3.3.3.3.3.2.*.#.-.2.3.3.3.3.3.3.3.3.3.",
"3.3.3.3.3.3.3.>.$.%.,.3.3.3.3.3.3.3.3.3.3.3.3.3.3.3.3.3.3.3.3.3.",
"3.3.3.3.3.3.3.3.3.3.3.3.3.3.3.3.3.3.3.3.3.3.3.3.3.3.3.3.3.3.3.3.",
"3.3.3.3.3.3.3.3.3.3.3.3.3.3.3.3.3.3.3.3.3.3.3.3.3.3.3.3.3.3.3.3.",
"3.3.3.3.3.3.3.3.3.3.3.3.3.3.3.3.3.3.3.3.3.3.3.3.3.3.3.3.3.3.3.3."
};
