/* XPM */
static char *result[] = {
/* columns rows colors chars-per-pixel */
"32 32 4 1 ",
"  c #B1AE7F",
". c #FF94DD",
"X c #A6FAFF",
"o c #FFFCC9",
/* pixels */
"............................. oo",
"............................  oo",
"............................  oo",
"...........................   oo",
"...........................  ooX",
"...........................  ooo",
"...........................  ooo",
"...........................  ooo",
"...........................  ooo",
"...........................  ooo",
"...........................   oo",
"...........................   oo",
"...........................   oo",
"............................  oo",
"............................  oo",
"............................. oX",
".............................ooo",
".............................ooo",
"............................oooo",
"............................ooo ",
"............................oo  ",
"............................oo  ",
"............................oo  ",
"............................oo  ",
"............................oo  ",
"........................... oo  ",
"........................... ooo ",
"........................... ooo ",
"...........................   o ",
"...........................   o ",
"............................  o ",
"............................. oo"
};
