/* XPM */
static char *result[] = {
/* columns rows colors chars-per-pixel */
"160 96 2 1 ",
"  c black",
". c #DE3C5C",
/* pixels */
"                                                                                                                                                                ",
" .............................................................................................................................................................. ",
" .............................................................................................................................................................. ",
" .............................................................................................................................................................. ",
" .............................................................................................................................................................. ",
" .............................................................................................................................................................. ",
" .............................................................................................................................................................. ",
" .............................................................................................................................................................. ",
" .............................................................................................................................................................. ",
" .............................................................................................................................................................. ",
" .............................................................................................................................................................. ",
" .............................................................................................................................................................. ",
" .............................................................................................................................................................. ",
" .............................................................................................................................................................. ",
" .............................................................................................................................................................. ",
" .............................................................................................................................................................. ",
" .............................................................................................................................................................. ",
" ................             ..............               .....               ....               ..............      ..........                  ............. ",
" ................                ...........               .....               ....               .............       ..........                  ............. ",
" ................                 ..........               .....               ....               .............       ..........                  ............. ",
" ................                   ........               .....               ....               ............         .........                  ............. ",
" ................                    .......               .....               ....               ............         .........                  ............. ",
" ................      ....          .......      ..............      .............      .....................          ..............      ................... ",
" ................      .......        ......      ..............      .............      ....................           ..............      ................... ",
" ................      ........        .....      ..............      .............      ....................           ..............      ................... ",
" ................      .........       .....      ..............      .............      ...................             .............      ................... ",
" ................      ..........      .....      ..............      .............      ...................      .      .............      ................... ",
" ................      ..........      .....      ..............      .............      ...................      .       ............      ................... ",
" ................      ..........       ....               .....              .....               .........      ...      ............      ................... ",
" ................      ..........       ....               .....              .....               .........      ...      ............      ................... ",
" ................      ..........       ....               .....              .....               ........       ....      ...........      ................... ",
" ................      ..........       ....               .....              .....               ........      .....      ...........      ................... ",
" ................      ..........       ....               .....              .....               ........      .....       ..........      ................... ",
" ................      ..........      .....      ..............      .............      ................       ......      ..........      ................... ",
" ................      ..........      .....      ..............      .............      ................                   ..........      ................... ",
" ................      .........       .....      ..............      .............      ...............                     .........      ................... ",
" ................      ........       ......      ..............      .............      ...............                     .........      ................... ",
" ................      .......        ......      ..............      .............      ...............                     .........      ................... ",
" ................      .....         .......      ..............      .............      ..............                       ........      ................... ",
" ................                    .......               .....      .............               .....      ...........      ........      ................... ",
" ................                   ........               .....      .............               ....       ...........       .......      ................... ",
" ................                 ..........               .....      .............               ....      .............      .......      ................... ",
" ................                ...........               .....      .............               ....      .............      .......      ................... ",
" ................             ..............               .....      .............               ...       .............       ......      ................... ",
" .............................................................................................................................................................. ",
" .............................................................................................................................................................. ",
" .............................................................................................................................................................. ",
" .............................................................................................................................................................. ",
" .............................................................................................................................................................. ",
" .............................................................................................................................................................. ",
" .............................................................................................................................................................. ",
" .............................................................................................................................................................. ",
" .............................................................................................................................................................. ",
" .............................................................................................................................................................. ",
" ...................       ...  ..    ....    ...  ....  .    ....  ...  ..  ...  ......    .....    ...     ...  ...  ....    ...  ...  ...................... ",
" ...................       ...  ..    ....    ...   ...  .    ....  ...  ...  .   ....       ..       ..     ....  .   ..       ..  ...  ...................... ",
" .....................  .  ...  ..  ......  .....    ..  .  .....   ..   ....    .....  ... ...  ....  ...  ......    ...  ....  .  ...  ...................... ",
" .....................  .       ..    ....    ...    ..  .    ...    .   ....   ...... ........ .....  ...  ......   .... .....  .  ...  ...................... ",
" .....................  .       ..    ....    ...  .  .  .    ...  .   .  ....  ...... ...    . .....  ...  .......  .... .....  .  ...  ...................... ",
" .....................  .  ...  ..  ......  .....  ..    .  .....  .   .  ....  ......  ...  ..  ....  ...  .......  ....  ....  .  ...  ...................... ",
" .....................  .  ...  ..    ....    ...  ...   .    ...  .  ..  ....  ......       ..       ....  .......  ....       ..      ...  .................. ",
" .....................  .  ...  ..    ....    ...  ....  .    ... ... ..  ....  .......     .....    .....  .......  ......    ....    ....  .................. ",
" .......................................................................................................................................... ................... ",
" .........................................................................................................................................  ................... ",
" .............................................................................................................................................................. ",
" .............................................................................................................................................................. ",
" .............................................................................................................................................................. ",
" ..............    ...    ..          .    ..    ......  ...  ...  .....   .  ..  .....  ....  .    ...  ..  ..     ...     .  ...  ...  ..    ..  ............ ",
" ..............  .  ..    ..          .    ..  .  .....  ...  ...  ...     .  .  ......   ...  .    ....  .  ..     ...     .  ...  ...  ..    ..  ............ ",
" ..............  .  ..  ......  ...  ..  ....  .. .....  ...  ...  ...  ....     ......    ..  .  ......    .....  ......  ..  ..   ..   ..  ....  ............ ",
" ..............    ...    ....  ...  ..    ..  .  .....  ...  ...  ..  .....    .......    ..  .    .....  ......  ......  ..  ..    .   ..    ..  ............ ",
" ..............  .  ..    ....  ...  ..    ..     .....  ...  ...  ..  .....    .......  .  .  .    .....   .....  ......  ..  ..  .   .  .    ..  ............ ",
" ..............  ..  .  ......  ...  ..  ....    ......  ...  ...  ...  ....  .  ......  ..    .  ......    .....  ......  ..  ..  .   .  .  .................. ",
" ..............  .  ..    ....  ...  ..    ..  .  .....    .      ....     .  .   .....  ...   .    ...  ..  ....  ......  ..  ..  .  ..  .    ..  ............ ",
" ..............     ..    ....  ...  ..    ..  .   ....    ..    .......   .  ..   ....  ....  .    ..   ...  ...  ......  ..  .. ... ..  .    ..  ............ ",
" .............................................................................................................................................................. ",
" .............................................................................................................................................................. ",
" .............................................................................................................................................................. ",
" .............................................................................................................................................................. ",
" .............................................................................................................................................................. ",
" .............................................................................................................................................................. ",
" .............................................................................................................................................................. ",
" .............................................................................................................................................................. ",
" .............................................................................................................................................................. ",
" .............................................................................................................................................................. ",
" .............................................................................................................................................................. ",
" .............................................................................................................................................................. ",
" .............................................................................................................................................................. ",
" .............................................................................................................................................................. ",
" .............................................................................................................................................................. ",
" .............................................................................................................................................................. ",
" .............................................................................................................................................................. ",
" .............................................................................................................................................................. ",
" .............................................................................................................................................................. ",
" .............................................................................................................................................................. ",
"                                                                                                                                                                "
};
