/* XPM */
static char *result[] = {
/* columns rows colors chars-per-pixel */
"32 32 18 1 ",
"  c black",
". c #574E5E",
"X c #918F7B",
"o c #94937B",
"O c #8A34CB",
"+ c #6D8F91",
"@ c #A2A085",
"# c #AFAD8E",
"$ c #BDBB98",
"% c #CAC8A2",
"& c #D7D4AC",
"* c #E5E3B6",
"= c #BAB1C1",
"- c #CAA7E5",
"; c #A6FAFF",
": c #F2EFC0",
"> c #FFFCC9",
", c white",
/* pixels */
">>>>>>>>>>>>>>>>>>>>>>;>>>>>>>>>",
">>>>>>>>>>>>>>>>>>>>>>;;>>>>>>>>",
">>  ..>>>>>>>>>>>>>>>>>;>>..  >>",
">> ==,=.>>>>>>>>>>>>>>>>.=,== >>",
">>.=,,,,.>>>>>>>>>>>>>>.,,,,=.>>",
";;.,,-O,=>>>>>>>>>>>>>>=,O-,,.;;",
">;;=,O-,,.>>>>>>>>>>>>.,,-O,=>>>",
">>>.,,,,=.>>>>>>>>>>>>.=,,,,.>>>",
">>>>.=,== >>>>>>>>>>>> ==,=.>>>>",
">>>>>>..  ;;>>>>>>>>>>  ..>>>>>>",
">O-O>>>>>>>>>......>>>>>>>>>O-O>",
">>---O>>>> .......... >>>>O--->>",
">>>O--O> .............. >O--O>>>",
">>--O-- ................ --O-->>",
">>>>-O .................. O->>>;",
";;>>> .................... >>>;;",
">>;>> .................... >>;;>",
">>>>-O .................. O-;;>>",
">>--O-- ................ --O-->>",
">>>O--O> .=,........,=. ;O--O>>>",
">>---O>>>> ..=,,,,=.. >>>>O--->>",
">O-O>>>..  >>......>>>>>>>>>O-O>",
">>>>>.=,== >>>>>>>>>>>>>>>>>>>>>",
">>>>.,,,,=.>>>>>>>>>>  ..>>>>>>>",
">>>>=,O-,,.*&&&&&&&&* ==,=.>>>>>",
">>>.,,-O,=%$########$.=,,,,.>>>>",
">>>.=,,,,.@oXXXXXXXXo.,,-O,=:>>>",
">>> ==,=.++++++++XXXXX=,O-,,.>>>",
">>>  ..XXXXXXXXX+++XXX.,,,,=.>>>",
">>>&#XXXXXXXXXXXXX++XXX.=,== >>>",
">>>*%@oXXXXXXXXXXXX++XXXo..  >>>",
">>>:*%#oXXXXXXXXXXXXX++o#&:>>>>>"
};
