/* XPM */
static char *_2e5b588a14e4c72eb7c012828fd06a3djbpE5nYbvQWIrYW[] = {
/* columns rows colors chars-per-pixel */
"32 32 6 1 ",
"  c #3F3F74",
". c #5757B1",
"X c #D77BBA",
"o c #FF94DD",
"O c #A6FAFF",
"+ c #FFFCC9",
/* pixels */
"+++++++++++++      +++O+++++++++",
"++++++++++            OO++++++++",
"+++++++      ......      +++++++",
"++++++    .......... .    ++++++",
"+++++        ....... ..    +++++",
"OO++   .....  ...... ....   OOOO",
"+OO    ...... ...... .....   +++",
"++   ........  ..... ......   ++",
"++   ........  XX... ......   ++",
"++  .........XXXXXXX .......  ++",
"+  .......XXXooooooooXX....    +",
"+  ......XXoooooooooooX...  .  +",
"+      XXXooooooooooooXX.. ..  +",
"  .....XXooooooooooooooX.  ...  ",
"  .....XXooooooooooooooXX ....  ",
"  .....XXooooooooooooooXX.....  ",
"  .....XXooooooooooooooXX.....  ",
"  .....XXooooooooooooooXX....   ",
"  .... XXXoooooooooooooXX..     ",
"+  ... ..XooooooooooooXX    .  +",
"+  .. ...XXooooooooooXX......  +",
"+  .  ....XooooooooooXX......  +",
"++   .....XXXXXXooooXX......  ++",
"++   ........ XXXXXXXX.....   ++",
"++   ........ ..XXXX.......   ++",
"+++   ....... ......  ....   +++",
"++++   ...... ........      ++++",
"+++++    .... .........    +++++",
"++++++    ... ........    ++++++",
"+++++++      . ....      +++++++",
"++++++++++            ++++++++++",
"+++++++++++++      ++OO+++++++++"
};
