/* XPM */
static char *result[] = {
/* columns rows colors chars-per-pixel */
"32 32 6 1 ",
"  c #3F3F74",
". c #5757B1",
"X c #D77BBA",
"o c #FF94DD",
"O c #A6FAFF",
"+ c #FFFCC9",
/* pixels */
"++++++++++++++++++++++O+++++++++",
"+++++++++++++      +++OO++++++++",
"++++++++++            +O++++++++",
"++++++++     ......     O+++++++",
"+++++++   .......... .   OO+++++",
"OO++++       ....... ..   OOOOOO",
"+OOOO   ....  ...... ...   +++++",
"++++    ..... ...... ....   ++++",
"+++   .......  ..... .....   +++",
"+++  .........XXXXXX ......  +++",
"++  ......XXXoooooooo..... .  ++",
"++  .....XXooooooooooo...  .  ++",
"++      XXooooooooooooo.. ..  ++",
"+  .....Xoooooooooooooo.  ...  +",
"+  .....XooooooooooooooX ....  O",
"O  .....XooooooooooooooX.....  O",
"+  .....XooooooooooooooX.....  +",
"+  .....XooooooooooooooX....   +",
"+  .... XXoooooooooooooX..     +",
"++  ... .XooooooooooooX    .  ++",
"++  .. ...oooooooooooX......  ++",
"++  .  ....oooooooooo.......  ++",
"+++   .......XXXooooX......  +++",
"+++   ....... ..XXXX......   +++",
"++++   ...... ......  ...   ++++",
"+++++   ..... ........     +++++",
"++++++   .... .........   ++++++",
"+++++++   ... ........   +++++++",
"++++++++     . ....     ++++++++",
"++++++++++            ++++++++++",
"+++++++++++++      OO+++++++++++",
"+++++++++++++++++++++OO+++++++++"
};
