/* XPM */
static char *_0ee6dbc8ef2478fef2f30addf62b51eX0zdC2jVk04O5wuv[] = {
/* columns rows colors chars-per-pixel */
"32 32 24 1 ",
"  c black",
". c #574E5E",
"X c #97323D",
"o c #CB3474",
"O c #E54C5C",
"+ c #918F7B",
"@ c #94937B",
"# c #3D7082",
"$ c #6D8F91",
"% c #74B8CF",
"& c #A2A085",
"* c #AFAD8E",
"= c #A6C7B8",
"- c #CAC8A2",
"; c #D7D4AC",
": c #E5E3B6",
"> c #BAB1C1",
", c #E5A7C1",
"< c #A6FAFF",
"1 c #CDEFD6",
"2 c #F2EFC0",
"3 c #F2F0C0",
"4 c #FFFCC9",
"5 c white",
/* pixels */
"4444444444444444444444<444444444",
"4444444444444444444444<<44444444",
"44444444444444444444444<44444444",
"444444444444444444444444<4444444",
"444444444444444444444444<<<44444",
"<<44444444444######4444444<<<<<<",
"4<<<<<<<444##%%%%%%##44444444444",
"4444444<<##%%%<<<<<<<##444444444",
"44444444#%%%<<<5<55<<<<#44444444",
"4444444#%%%%<<<<<<555<<<#4444444",
"4444444#%%%%<<<<<<<555<<#4444444",
"444444#%%%%<<<<<<<<<555<<#444444",
"444444#%%%%<<......<<<5<<#444444",
"44444#%%%%< .>>>>>>. <<5<<#44444",
"44444#%%%% >>55  55>> <<<<#4444<",
"<<444#%%% >555.,,.555> <<<#444<<",
"44<44#%% >555 ,oo, 555> <<#44<<4",
"44444#%%% 5555.,,.5555 <<<#<<<44",
"44444X%X%X 5555  5555 <O<O#<4444",
"444444X%X%O .555555. <O<O#444444",
"444444#X%X%O<......<<O<O<X444444",
"4444444#%%%<<<<<<<<<<<<<#4444444",
"4444442#%%%%<<<<<<<<<<<<#2444444",
"444442;-#%%%<<<<<<<<<<<#-;244444",
"4442:-*&&##%%%<<<<<<<##&&*-:2444",
"444:-&@++++##%%%%%%##++++@&-:444",
"444;*++++++++######++++++++*;444",
"444;*+++$$$$$$$$$++++++++++*;444",
"444:-&@+++++++++$$$++++++@&-:444",
"4442:-*@++++++++++$$++++@*-:2444",
"444442-&+++++++++++$$++&-2444444",
"444444443-&+++++++++&=1444444444"
};
