/* XPM */
static char *_ddf5a570f3c4113ac42824bd2855101j927rF1J0HOzE7gT[] = {
/* columns rows colors chars-per-pixel */
"32 32 23 1 ",
"  c black",
". c #574E5E",
"X c #CB3474",
"o c #E54C5C",
"O c #918F7B",
"+ c #94937B",
"@ c #3D7082",
"# c #6D8F91",
"$ c #74B8CF",
"% c #A2A085",
"& c #AFAD8E",
"* c #A6C7B8",
"= c #CAC8A2",
"- c #D7D4AC",
"; c #E5E3B6",
": c #BAB1C1",
"> c #E5A7C1",
", c #A6FAFF",
"< c #CDEFD6",
"1 c #F2EFC0",
"2 c #F2F0C0",
"3 c #FFFCC9",
"4 c white",
/* pixels */
"3333333333333333333333,333333333",
"3333333333333333333333,,33333333",
"33333333333333333333333,33333333",
"333333333333333333333333,3333333",
"333333333333333333333333,,,33333",
",,33333333333@@@@@@3333333,,,,,,",
"3,,,,,,,333@@$$$$$$@@33333333333",
"3333333,,@@$$$,,,,,,,@@333333333",
"33333333@$$$,,,4,44,,,,@33333333",
"3333333@$$$$,,,,,,444,,,@3333333",
"3333333@$$$$,,,,,,,444,,@3333333",
"333333@$$$$,,,,,,,,,444,,@333333",
"333333@$$$$,,,,,,,,,,,4...333333",
"33333@$$$$,,,,,,,,,,, .:::.33333",
"33333@$$$$,,,,,,,,,, ::44 .3333,",
",,333@$$$$,,,,,,,,, :444.>.333,,",
"33,33@$$$$,,,,,,,, :444 >X.33,,3",
"33333@$$$$,,,,,,,,, 4444.>.,,,33",
"33333@$$$$,,,,,o,o,o 4444 .,3333",
"333333@$$$,,,,,,o,o,o .44.333333",
"333333@$$$$,,,,,,o,o,o,..@333333",
"3333333@$$$,,,,,,,,,,,,,@3333333",
"3333331@$$$$,,,,,,,,,,,,@1333333",
"333331-=@$$$,,,,,,,,,,,@=-133333",
"3331;=&%%@@$$$,,,,,,,@@%%&=;1333",
"333;=%+OOOO@@$$$$$$@@OOOO+%=;333",
"333-&OOOOOOOO@@@@@@OOOOOOOO&-333",
"333-&OOO#########OOOOOOOOOO&-333",
"333;=%+OOOOOOOOO###OOOOOO+%=;333",
"3331;=&+OOOOOOOOOO##OOOO+&=;1333",
"333331=%OOOOOOOOOOO##OO%=1333333",
"333333332=%OOOOOOOOO%*<333333333"
};
