/* XPM */
static char *_7b2b06797824f38b5e5022b97d0b701CjjGAHaRQKBDnBiR[] = {
/* columns rows colors chars-per-pixel */
"32 32 17 1 ",
"  c #918F7B",
". c #94937B",
"X c #3D7082",
"o c #6D8F91",
"O c #74B8CF",
"+ c #A2A085",
"@ c #AFAD8E",
"# c #A6C7B8",
"$ c #CAC8A2",
"% c #D7D4AC",
"& c #E5E3B6",
"* c #A6FAFF",
"= c #CDEFD6",
"- c #F2EFC0",
"; c #F2F0C0",
": c #FFFCC9",
"> c white",
/* pixels */
"::::::::::::::::::::::*:::::::::",
"::::::::::::::::::::::**::::::::",
":::::::::::::::::::::::*::::::::",
"::::::::::::::::::::::::*:::::::",
"::::::::::::::::::::::::***:::::",
"**:::::::::::XXXXXX:::::::******",
":*******:::XXOOOOOOXX:::::::::::",
":::::::**XXOOO*******XX:::::::::",
"::::::::XOOO***>*>>****X::::::::",
":::::::XOOOO******>>>***X:::::::",
":::::::XOOOO*******>>>**X:::::::",
"::::::XOOOO*********>>>**X::::::",
"::::::XOOOO***********>**X::::::",
":::::XOOOO*************>**X:::::",
":::::XOOOO****************X::::*",
"**:::XOOOO****************X:::**",
"::*::XOOOO****************X::**:",
":::::XOOOO****************X***::",
":::::XOOOO****************X*::::",
"::::::XOOO***************X::::::",
"::::::XOOOO**************X::::::",
":::::::XOOO*************X:::::::",
"::::::-XOOOO************X-::::::",
":::::-%$XOOO***********X$%-:::::",
":::-&$@++XXOOO*******XX++@$&-:::",
":::&$+.    XXOOOOOOXX    .+$&:::",
":::%@        XXXXXX        @%:::",
":::%@   ooooooooo          @%:::",
":::&$+.         ooo      .+$&:::",
":::-&$@.          oo    .@$&-:::",
":::::-$+           oo  +$-::::::",
"::::::::;$+         +#=:::::::::"
};
