/* XPM */
static char *e5a297a5d0484d85c321d4a72b7db77502ICrOXVBj66Qjsg[] = {
/* columns rows colors chars-per-pixel */
"32 32 3 1 ",
"  c #B1AE7F",
". c #FF94DD",
"X c #FFFCC9",
/* pixels */
"XXXXXX      XXXXXXXXXXXXXXXXXXXX",
"    XXXXXXXXXXXX      XXXXXX    ",
"X   XXXXXXXXXX...              X",
"X      ... X.......            X",
"XX  ...... X........X ......  XX",
"XX  ...... X........X ......  XX",
"XX  ...... X........X ......  XX",
"XX  ...... X........X ......  XX",
"XX  ...... X........X ......  XX",
"XX  ...... X........X ......  XX",
"X   ...... X........X ......   X",
"X   XXXXXXXXXX...              X",
"XXXXXX      XXXXXXXXXXXXXXXXXXXX",
"X  ....... X........X .......  X",
"X  ....... X........X .......  X",
"X ........ X........X ........ X",
"XX........ X........X.........XX",
"XX.........X........X.........XX",
"XXX........X........X........XXX",
"XXX........X........XX.......XXX",
"XXXXX      XXXXXXXXXXXXXXXXXXXX ",
"   XXXXXXXXXX...              X ",
" XX.......X ........ X.......XX ",
" XX.......X ........ X.......XX ",
" XX.......X ........ X.......XX ",
" XX ......X ........ X...... XX ",
"XXX ......X ........ X...... XXX",
"XXX ......X ........XX...... XXX",
"X      ...XX.......            X",
"X   XXXXXXXXXX...              X",
"    XXXXXXXXXXXX      XXXXXX    ",
"XXXXXX      XXXXXXXXXXXXXXXXXXXX"
};
