/* XPM */
static char *result[] = {
/* columns rows colors chars-per-pixel */
"32 32 4 1 ",
"  c #B1AE7F",
". c #FF94DD",
"X c #A6FAFF",
"o c #FFFCC9",
/* pixels */
"o            oooooooooXooooooooo",
"oooooo      oooooooooooooooooooo",
"    oooooooooooo      oooooo    ",
"o   oooooooooo...              o",
"oo     ............          ooX",
"Xoo  ......................  ooo",
"ooo  ......................  ooo",
"ooo  ......................  ooo",
"ooo  ......................  ooo",
"ooo  ......................  ooo",
"oo   ......................   oo",
"oo   ......................   oo",
"oo   ......................   oo",
"oo  ........................  oo",
"Xo  ........................  oo",
"oo .......................... oX",
"ooo..........................ooo",
"ooo..........................ooo",
"oooo........................oooo",
" ooo........................ooo ",
"  oo........................oo  ",
"  oo........................oo  ",
"  oo........................oo  ",
"  oo........................oo  ",
"  oo........................oo  ",
"  oo ...................... oo  ",
" ooo ...................... ooo ",
" o     ............          oo ",
"    oooooooooo...               ",
"    oooooooooooo      oooooo    ",
"oooooo      oooooooooooooooooooo",
"o            oooooooooXooooooooo"
};
