/* XPM */
static char *result[] = {
/* columns rows colors chars-per-pixel */
"32 32 4 1 ",
"  c #B1AE7F",
". c #FF94DD",
"X c #A6FAFF",
"o c #FFFCC9",
/* pixels */
"................................",
"................................",
"................................",
"................................",
"................................",
"................................",
"................................",
"................................",
"................................",
"................................",
"................................",
"................................",
"................................",
"................................",
"................................",
"................................",
"................................",
"................................",
"................................",
"................................",
"................................",
"................................",
"................................",
"................................",
"................................",
"................................",
"................................",
"..     ............          ...",
".   oooooooooo...              .",
"    oooooooooooo      oooooo    ",
"oooooo      oooooooooooooooooooo",
"o            oooooooooXooooooooo"
};
